<svg width="24" height="25" viewBox="0 0 24 25" fill="none" xmlns="http://www.w3.org/2000/svg">
<path fill-rule="evenodd" clip-rule="evenodd" d="M7 12.5C7 12.2327 7.21664 12.0161 7.48387 12.0161H16.5161C16.7834 12.0161 17 12.2327 17 12.5C17 12.7672 16.7834 12.9839 16.5161 12.9839H7.48387C7.21664 12.9839 7 12.7672 7 12.5Z" fill="#535961"/>
<path fill-rule="evenodd" clip-rule="evenodd" d="M12.3421 7.64172C12.5311 7.83069 12.5311 8.13706 12.3421 8.32602L8.16817 12.5L12.3421 16.674C12.5311 16.8629 12.5311 17.1693 12.3421 17.3583C12.1532 17.5472 11.8468 17.5472 11.6579 17.3583L7.14172 12.8421C6.95276 12.6532 6.95276 12.3468 7.14172 12.1579L11.6579 7.64172C11.8468 7.45276 12.1532 7.45276 12.3421 7.64172Z" fill="#535961"/>
<rect x="0.5" y="1" width="23" height="23" rx="3.5" stroke="#B3B9C1"/>
</svg>
