<svg width="14" height="14" viewBox="0 0 14 14" fill="none" xmlns="http://www.w3.org/2000/svg">
<path d="M9.40313 14C9.3497 14 9.3497 14 9.29627 14C9.08257 13.9486 8.81543 13.9486 8.60172 13.8971C8.38802 13.8457 8.17431 13.8457 7.90717 13.7943C7.74689 13.7428 7.53319 13.7428 7.37291 13.6914L6.73178 13.5371L6.99892 13.1771C7.26605 12.7657 7.58661 12.4057 7.80032 12.0457C7.85375 11.9942 7.90717 11.9428 7.9606 11.84C7.80032 11.9428 7.58661 12.0971 7.37291 12.2514C6.51808 12.8685 5.34269 12.9714 4.381 12.5085L3.5796 12.1485C3.47275 12.0971 3.36589 11.9942 3.31246 11.84C3.25904 11.6857 3.31246 11.5828 3.41932 11.4285C3.63303 11.2228 3.79331 11.0171 3.90016 10.8628C3.73988 10.9142 3.63303 10.9657 3.47275 11.0171C2.72477 11.2742 1.92337 11.1199 1.33567 10.6571C0.747976 10.1942 0.427415 9.93706 0.373988 9.88563L0 9.52563L0.587695 9.42277C0.641122 9.42277 5.23583 8.29132 7.90717 5.20556L8.06746 5.05127L13.2499 7.26273L13.143 7.51988C12.8759 8.29132 11.8608 11.0171 9.9374 13.7428C9.83054 13.7943 9.72369 14 9.40313 14ZM7.74689 13.1257C7.85375 13.1257 7.9606 13.1771 8.06746 13.1771C8.28116 13.2285 8.49487 13.2285 8.70858 13.28C8.92228 13.3314 9.18942 13.3314 9.40313 13.3828C11.1662 10.9142 12.1279 8.44561 12.5019 7.51988L8.22774 5.66842C5.93038 8.18846 2.56597 9.42277 1.2303 9.83421C1.39058 9.93706 1.55086 10.0914 1.76457 10.2456C2.19198 10.6056 2.77968 10.7085 3.31395 10.5028C3.90164 10.2971 4.38249 10.0914 4.54277 9.93706L5.18389 9.37134L5.02361 10.1942C4.97018 10.6056 4.32906 11.3257 3.95507 11.7371L4.59619 12.0457C5.3976 12.4057 6.30585 12.3028 7.0004 11.84C7.69495 11.3257 8.22922 10.9657 8.49635 10.7599C8.54978 10.7085 8.65663 10.6056 8.76349 10.5542L9.56489 9.83421L9.35118 10.7085C9.24433 11.0685 8.87034 11.5828 8.22922 12.4057C8.12088 12.6114 7.90717 12.8685 7.74689 13.1257Z" fill="#535961"/>
<path d="M13.0896 7.57156L7.90723 5.36152L8.01408 5.10438C8.17436 4.74437 8.38807 4.48722 8.76206 4.33293C9.29633 4.02436 9.88402 3.97293 10.4183 4.23008C11.0594 4.48722 11.6471 4.74437 12.2882 5.05295C13.1431 5.41295 13.5705 6.28725 13.3033 7.16155C13.3033 7.21298 13.2499 7.26441 13.2499 7.31584L13.0896 7.57156ZM8.6552 5.10438L12.7156 6.85298C12.8225 6.28725 12.5554 5.77296 12.0211 5.56724C11.4334 5.31009 10.7923 5.05295 10.1512 4.7958C9.77717 4.64151 9.34975 4.64151 8.97576 4.84723C8.86891 4.84723 8.76206 4.95009 8.6552 5.10438Z" fill="#535961"/>
<path d="M12.3948 4.94985L12.1276 4.84699L10.6317 4.17841L10.418 3.97269L10.5782 3.66412L12.3948 0.372635C12.555 0.064058 12.7688 -0.0388008 13.1427 0.0126287C13.4099 0.0640581 13.677 0.166917 13.8373 0.372635C13.9976 0.526923 14.051 0.78407 13.9441 0.989788L12.5016 4.69271L12.3948 4.94985ZM11.1125 3.8184L12.0742 4.22984L13.3564 0.835499C13.3564 0.78407 13.3564 0.78407 13.3564 0.78407C13.303 0.681211 13.1962 0.629782 13.0359 0.629782C12.9825 0.629782 12.929 0.629782 12.929 0.629782C12.929 0.629782 12.929 0.629782 12.8756 0.681211L11.1125 3.8184Z" fill="#535961"/>
</svg>
