<svg width="14" height="14" viewBox="0 0 14 14" fill="none" xmlns="http://www.w3.org/2000/svg">
<g clip-path="url(#clip0_2_515)">
<path d="M8.93062 5.07237C8.74953 5.07237 8.60275 5.21915 8.60275 5.40024V11.597C8.60275 11.7779 8.74953 11.9248 8.93062 11.9248C9.11172 11.9248 9.25849 11.7779 9.25849 11.597V5.40024C9.25849 5.21915 9.11172 5.07237 8.93062 5.07237Z" fill="#535961"/>
<path d="M5.06044 5.07237C4.87935 5.07237 4.73257 5.21915 4.73257 5.40024V11.597C4.73257 11.7779 4.87935 11.9248 5.06044 11.9248C5.24154 11.9248 5.38831 11.7779 5.38831 11.597V5.40024C5.38831 5.21915 5.24154 5.07237 5.06044 5.07237Z" fill="#535961"/>
<path d="M2.243 4.16766V12.2456C2.243 12.7231 2.41807 13.1715 2.72391 13.4932C3.02834 13.8158 3.45201 13.999 3.8954 13.9997H10.0988C10.5423 13.999 10.9659 13.8158 11.2703 13.4932C11.5761 13.1715 11.7512 12.7231 11.7512 12.2456V4.16766C12.3591 4.00629 12.7531 3.41894 12.6718 2.7951C12.5903 2.17138 12.0589 1.70481 11.4298 1.70468H9.75117V1.29485C9.75309 0.950201 9.61682 0.619259 9.37284 0.375792C9.12886 0.132452 8.79741 -0.00304919 8.45276 -0.000231579H5.5414C5.19675 -0.00304919 4.8653 0.132452 4.62132 0.375792C4.37734 0.619259 4.24107 0.950201 4.24299 1.29485V1.70468H2.56433C1.93524 1.70481 1.40386 2.17138 1.3224 2.7951C1.24108 3.41894 1.63503 4.00629 2.243 4.16766ZM10.0988 13.344H3.8954C3.33482 13.344 2.89873 12.8624 2.89873 12.2456V4.19648H11.0954V12.2456C11.0954 12.8624 10.6593 13.344 10.0988 13.344ZM4.89873 1.29485C4.89655 1.12412 4.96366 0.959806 5.08482 0.839289C5.20585 0.718772 5.37055 0.652558 5.5414 0.655504H8.45276C8.62361 0.652558 8.78832 0.718772 8.90934 0.839289C9.0305 0.959678 9.09761 1.12412 9.09544 1.29485V1.70468H4.89873V1.29485ZM2.56433 2.36042H11.4298C11.7558 2.36042 12.02 2.62463 12.02 2.95058C12.02 3.27653 11.7558 3.54074 11.4298 3.54074H2.56433C2.23839 3.54074 1.97417 3.27653 1.97417 2.95058C1.97417 2.62463 2.23839 2.36042 2.56433 2.36042Z" fill="#535961"/>
<path d="M6.99554 5.07237C6.81444 5.07237 6.66766 5.21915 6.66766 5.40024V11.597C6.66766 11.7779 6.81444 11.9248 6.99554 11.9248C7.17664 11.9248 7.32342 11.7779 7.32342 11.597V5.40024C7.32342 5.21915 7.17664 5.07237 6.99554 5.07237Z" fill="#535961"/>
</g>
<defs>
<clipPath id="clip0_2_515">
<rect width="14" height="14" fill="white"/>
</clipPath>
</defs>
</svg>
