<svg width="24" height="24" viewBox="0 0 24 24" fill="none" xmlns="http://www.w3.org/2000/svg">
<path d="M7.13652 13.4279L14.8545 5.90767C14.9699 5.79269 15.2769 5.59635 15.4278 5.53412C15.5787 5.47189 16.1961 5.53412 16.3594 5.53412C16.6774 5.90767 16.5421 5.62445 16.8352 5.98796M9.97881 16.3302C13.1508 12.9608 17.6816 8.26927 17.6816 8.26927C17.7971 8.15428 17.8602 7.89463 17.9104 7.65141C17.9487 7.46659 17.9104 7.17373 17.9104 7.17373C17.9104 7.17373 17.7441 6.85009 17.6816 6.69985M17.6816 6.69985L17.5888 5.90767C17.5888 5.90767 17.1295 5.95661 16.8352 5.98796M17.6816 6.69985C17.6816 6.69985 17.098 6.24968 16.8352 5.98796M16.3594 5C16.0782 5 15.7998 5.05515 15.5401 5.16229C15.2803 5.26943 15.0443 5.42648 14.8455 5.62445L7.26908 13.1677C7.21386 13.2226 7.17401 13.291 7.15347 13.3661L6.25606 16.6429C6.21369 16.7976 6.25781 16.9631 6.37167 17.0765C6.48553 17.1899 6.65166 17.2338 6.80701 17.1916L10.0975 16.2979C10.1728 16.2775 10.2415 16.2378 10.2967 16.1828L17.8732 8.63958C18.072 8.44161 18.2297 8.20658 18.3373 7.94791C18.4449 7.68924 18.5002 7.412 18.5002 7.13202C18.5002 6.85204 18.4449 6.5748 18.3373 6.31613C18.2297 6.05746 18.072 5.82243 17.8732 5.62445C17.6744 5.42648 17.4384 5.26943 17.1786 5.16229C16.9189 5.05515 16.6405 5 16.3594 5Z" stroke="#2F79EB" stroke-linecap="round" stroke-linejoin="round"/>
<path d="M6.82702 16.894C6.62124 16.9308 6.44149 16.7524 6.47781 16.5474L6.91167 14.0978C6.95227 13.8686 7.22856 13.7712 7.40497 13.9239L9.67523 15.8897C9.86574 16.0546 9.7796 16.3658 9.53114 16.4102L6.82702 16.894Z" fill="#2F79EB"/>
</svg>
