<svg width="24" height="24" viewBox="0 0 24 24" fill="none" xmlns="http://www.w3.org/2000/svg">
<rect x="0.5" y="0.5" width="23" height="23" rx="2.5" stroke="#B3B9C1"/>
<g clip-path="url(#clip0_4791_884)">
<path d="M5.9035 8.07828H7.3133H9.9313H9.9355C10.0307 8.07828 10.1077 8.15528 10.1077 8.24908C10.1077 8.30788 10.0769 8.35968 10.0307 8.39048C9.8585 8.50528 9.6891 8.62708 9.5239 8.75728L9.5225 8.75868C9.4861 8.78668 9.4497 8.81608 9.4133 8.84688C9.1907 9.00788 8.9177 9.10168 8.6209 9.10168H6.5265C6.3403 9.10168 6.1905 9.24448 6.1807 9.42508V9.44188V9.46008V16.7905V16.8073V16.8241C6.1905 16.9963 6.3277 17.1349 6.4999 17.1475H6.5265H6.5531H15.4291H15.4557H15.4823C15.6559 17.1349 15.7931 16.9963 15.8015 16.8241C15.8015 16.8185 15.8015 16.8129 15.8015 16.8073C15.8015 16.8017 15.8015 16.7961 15.8015 16.7905V14.3881V14.3349C15.8085 14.1263 15.8995 13.9387 16.0437 13.8043C16.0493 13.7987 16.0549 13.7945 16.0605 13.7903L16.5421 13.3507L16.5547 13.3395C16.5547 13.3381 16.5561 13.3381 16.5561 13.3367C16.5869 13.3129 16.6247 13.2975 16.6667 13.2975C16.7619 13.2975 16.8403 13.3745 16.8403 13.4683V13.6391V15.0867V17.4233C16.8403 17.8377 16.4987 18.1737 16.0787 18.1737H5.9007C5.4793 18.1737 5.1377 17.8377 5.1377 17.4233V8.83008C5.1405 8.41428 5.4821 8.07828 5.9035 8.07828ZM15.8029 12.8635L14.9027 13.6839C14.8971 13.6895 14.8929 13.6937 14.8887 13.6979C14.8271 13.7511 14.7473 13.7833 14.6577 13.7833C14.4659 13.7833 14.3119 13.6307 14.3119 13.4431H14.3105V12.1019C14.3119 12.0921 14.3119 12.0851 14.3119 12.0753C14.3119 12.0669 14.3119 12.0585 14.3105 12.0487C14.2965 11.6371 13.9535 11.3067 13.5307 11.3067C11.4041 11.3487 9.6667 11.6147 8.2751 12.8649C8.2485 12.8887 8.2233 12.9125 8.1967 12.9349V12.9363C8.1407 12.9727 8.0735 12.9937 8.0021 12.9937C7.8103 12.9937 7.6549 12.8411 7.6549 12.6521C7.6549 12.5989 7.6675 12.5485 7.6899 12.5037C8.2261 11.3823 9.1109 10.0285 10.5081 9.09888C11.2501 8.60608 12.1349 8.23228 13.1891 8.07548C13.3263 8.05588 13.4663 8.03768 13.6091 8.02508C13.9941 7.98728 14.2951 7.67228 14.3091 7.28728C14.3105 7.27888 14.3105 7.27048 14.3105 7.26068C14.3105 7.25228 14.3105 7.24388 14.3091 7.23548V6.16588H14.3105C14.3105 5.97688 14.4645 5.82568 14.6563 5.82568C14.7403 5.82568 14.8173 5.85508 14.8761 5.90268C14.8803 5.90688 14.8845 5.91108 14.8887 5.91388L18.5735 9.15488C18.5735 9.15488 18.5749 9.15488 18.5749 9.15628L18.6211 9.19688C18.7681 9.33688 18.8605 9.53148 18.8605 9.74848C18.8605 9.93888 18.7891 10.1139 18.6729 10.2469L18.5399 10.3687L16.8431 11.9157L15.8029 12.8635Z" fill="#535961"/>
</g>
<defs>
<clipPath id="clip0_4791_884">
<rect width="14" height="14" fill="white" transform="translate(5 5)"/>
</clipPath>
</defs>
</svg>
