<svg width="24" height="24" viewBox="0 0 24 24" fill="none" xmlns="http://www.w3.org/2000/svg">
<rect x="0.5" y="0.5" width="23" height="23" rx="2.5" stroke="#B3B9C1"/>
<g clip-path="url(#clip0_50_1384)">
<path d="M5.90313 8.07828H7.31293H9.93093H9.93513C10.0303 8.07828 10.1073 8.15528 10.1073 8.24908C10.1073 8.30788 10.0765 8.35968 10.0303 8.39048C9.85813 8.50528 9.68873 8.62708 9.52353 8.75728L9.52213 8.75868C9.48573 8.78668 9.44933 8.81608 9.41293 8.84688C9.19033 9.00788 8.91733 9.10168 8.62053 9.10168H6.52613C6.33993 9.10168 6.19013 9.24448 6.18033 9.42508V9.44188V9.46008V16.7905V16.8073V16.8241C6.19013 16.9963 6.32733 17.1349 6.49953 17.1475H6.52613H6.55273H15.4287H15.4553H15.4819C15.6555 17.1349 15.7927 16.9963 15.8011 16.8241C15.8011 16.8185 15.8011 16.8129 15.8011 16.8073C15.8011 16.8017 15.8011 16.7961 15.8011 16.7905V14.3881V14.3349C15.8081 14.1263 15.8991 13.9387 16.0433 13.8043C16.0489 13.7987 16.0545 13.7945 16.0601 13.7903L16.5417 13.3507L16.5543 13.3395C16.5543 13.3381 16.5557 13.3381 16.5557 13.3367C16.5865 13.3129 16.6243 13.2975 16.6663 13.2975C16.7615 13.2975 16.8399 13.3745 16.8399 13.4683V13.6391V15.0867V17.4233C16.8399 17.8377 16.4983 18.1737 16.0783 18.1737H5.90033C5.47893 18.1737 5.13733 17.8377 5.13733 17.4233V8.83008C5.14013 8.41428 5.48173 8.07828 5.90313 8.07828ZM15.8025 12.8635L14.9023 13.6839C14.8967 13.6895 14.8925 13.6937 14.8883 13.6979C14.8267 13.7511 14.7469 13.7833 14.6573 13.7833C14.4655 13.7833 14.3115 13.6307 14.3115 13.4431H14.3101V12.1019C14.3115 12.0921 14.3115 12.0851 14.3115 12.0753C14.3115 12.0669 14.3115 12.0585 14.3101 12.0487C14.2961 11.6371 13.9531 11.3067 13.5303 11.3067C11.4037 11.3487 9.66633 11.6147 8.27473 12.8649C8.24813 12.8887 8.22293 12.9125 8.19633 12.9349V12.9363C8.14033 12.9727 8.07313 12.9937 8.00173 12.9937C7.80993 12.9937 7.65453 12.8411 7.65453 12.6521C7.65453 12.5989 7.66713 12.5485 7.68953 12.5037C8.22573 11.3823 9.11053 10.0285 10.5077 9.09888C11.2497 8.60608 12.1345 8.23228 13.1887 8.07548C13.3259 8.05588 13.4659 8.03768 13.6087 8.02508C13.9937 7.98728 14.2947 7.67228 14.3087 7.28728C14.3101 7.27888 14.3101 7.27048 14.3101 7.26068C14.3101 7.25228 14.3101 7.24388 14.3087 7.23548V6.16588H14.3101C14.3101 5.97688 14.4641 5.82568 14.6559 5.82568C14.7399 5.82568 14.8169 5.85508 14.8757 5.90268C14.8799 5.90688 14.8841 5.91108 14.8883 5.91388L18.5731 9.15488C18.5731 9.15488 18.5745 9.15488 18.5745 9.15628L18.6207 9.19688C18.7677 9.33688 18.8601 9.53148 18.8601 9.74848C18.8601 9.93888 18.7887 10.1139 18.6725 10.2469L18.5395 10.3687L16.8427 11.9157L15.8025 12.8635Z" fill="#535961"/>
</g>
<defs>
<clipPath id="clip0_50_1384">
<rect width="14" height="14" fill="white" transform="translate(5 5)"/>
</clipPath>
</defs>
</svg>
