<svg width="24" height="24" viewBox="0 0 24 24" fill="none" xmlns="http://www.w3.org/2000/svg">
<path d="M11.6797 16.9245C11.5761 17.0052 11.4119 17.0256 11.2874 16.9643C11.1639 16.9041 11.0813 16.7633 11.0813 16.6419V11.7306C11.0813 11.6908 11.0813 11.65 11.0603 11.6102C11.0394 11.5704 11.0195 11.5296 10.9986 11.5092L7.07737 7.58368C6.99471 7.48266 6.97379 7.32245 7.03656 7.20102C7.09724 7.0602 7.24267 7 7.36612 7H16.6336C16.778 7 16.9014 7.08061 16.9642 7.20102C17.0259 7.34184 17.005 7.48266 16.9234 7.58368L13.0011 11.5092C12.9802 11.549 12.9603 11.5694 12.9394 11.6102C12.9184 11.65 12.9184 11.6908 12.9184 11.7306V15.797C12.9184 15.8572 12.8975 15.898 12.8776 15.9582C12.8567 16.0184 12.8159 16.0592 12.7741 16.0786L11.6797 16.9245Z" fill="#535961"/>
<rect x="0.5" y="0.5" width="23" height="23" rx="2.5" stroke="#B3B9C1"/>
</svg>
