<svg width="20" height="20" viewBox="0 0 20 20" fill="none" xmlns="http://www.w3.org/2000/svg">
<path d="M17.8213 3.07692L15.1787 0.449927L14.9263 0.21978L14.726 0L14.4048 1.18641e-07L14.0836 0H3.57144H2.79763V1.53846H3.57144H14.0857L16.7284 4.16546V6.92308V7.69231H18.2739V6.92308V4.16546V3.84823V3.52685L18.0028 3.28841L17.8213 3.07692ZM1.25 0.769231V19.2308V20H2.79763V19.2308V0.769231V0H1.25V0.769231ZM3.57144 20H15.9525H16.7263V18.4615H15.9525H3.57144H2.79763V20H3.57144ZM16.7263 8.46154V19.2308V20H18.2739V19.2308V8.46154V7.69231H16.7263V8.46154Z" fill="white"/>
<circle cx="9.6875" cy="5.3125" r="1.5625" fill="white"/>
<path d="M13.125 11.25C12.4375 11.25 11.586 11.25 9.6875 11.25C7.78902 11.25 6.9375 11.25 6.25 11.25C6.25 9.17893 7.78902 7.5 9.6875 7.5C11.586 7.5 13.125 9.17893 13.125 11.25Z" fill="white"/>
<line x1="6.125" y1="12.625" x2="13.25" y2="12.625" stroke="white" stroke-linecap="round"/>
<line x1="6.125" y1="14.5" x2="13.25" y2="14.5" stroke="white" stroke-linecap="round"/>
<line x1="6.125" y1="16.375" x2="13.25" y2="16.375" stroke="white" stroke-linecap="round"/>
</svg>
