<svg width="16" height="17" viewBox="0 0 16 17" fill="none" xmlns="http://www.w3.org/2000/svg">
<path d="M14.675 4.57505H10.9125V3.5438C10.9125 2.91255 10.3938 2.3938 9.7625 2.3938H6.2375C5.60625 2.3938 5.0875 2.91255 5.0875 3.5438V4.57505H1.31875C0.93125 4.57505 0.625 4.88755 0.625 5.2688V7.52505H3.325V6.9563C3.325 6.5938 3.61875 6.30005 3.98125 6.30005H4.1125C4.475 6.30005 4.76875 6.5938 4.76875 6.9563V7.52505H11.2312V6.9563C11.2312 6.5938 11.525 6.30005 11.8875 6.30005H12.0188C12.3813 6.30005 12.675 6.5938 12.675 6.9563V7.52505H15.375V5.27505C15.375 4.88755 15.0625 4.57505 14.675 4.57505ZM9.93125 4.57505H6.06875V3.5438C6.06875 3.4563 6.14375 3.3813 6.23125 3.3813H9.7625C9.85 3.3813 9.925 3.4563 9.925 3.5438V4.57505H9.93125Z" fill="#2F79EB"/>
<path d="M12.675 9.03753C12.675 9.40003 12.3812 9.69378 12.0187 9.69378H11.8875C11.525 9.69378 11.2312 9.40003 11.2312 9.03753V8.58752H4.7687V9.03753C4.7687 9.40003 4.47495 9.69378 4.11245 9.69378H3.9812C3.6187 9.69378 3.32495 9.40003 3.32495 9.03753V8.58752H1.0437V13.95C1.0437 14.3125 1.33745 14.6063 1.69995 14.6063H14.3C14.6625 14.6063 14.9562 14.3125 14.9562 13.95V8.58752H12.675V9.03753Z" fill="#2F79EB"/>
</svg>
