<svg width="14" height="15" viewBox="0 0 14 15" fill="none" xmlns="http://www.w3.org/2000/svg">
<path fill-rule="evenodd" clip-rule="evenodd" d="M7 1.47674C3.67345 1.47674 0.976744 4.17345 0.976744 7.5C0.976744 10.8266 3.67345 13.5233 7 13.5233C10.3266 13.5233 13.0233 10.8266 13.0233 7.5C13.0233 4.17345 10.3266 1.47674 7 1.47674ZM0 7.5C0 3.63401 3.13401 0.5 7 0.5C10.866 0.5 14 3.63401 14 7.5C14 11.366 10.866 14.5 7 14.5C3.13401 14.5 0 11.366 0 7.5Z" fill="#B3B9C1"/>
<path fill-rule="evenodd" clip-rule="evenodd" d="M7.00009 7.01172C7.26981 7.01172 7.48846 7.23037 7.48846 7.50009V10.1047C7.48846 10.3745 7.26981 10.5931 7.00009 10.5931C6.73037 10.5931 6.51172 10.3745 6.51172 10.1047V7.50009C6.51172 7.23037 6.73037 7.01172 7.00009 7.01172Z" fill="#B3B9C1"/>
<path fill-rule="evenodd" clip-rule="evenodd" d="M6.51172 4.89462C6.51172 4.6249 6.73037 4.40625 7.00009 4.40625H7.0066C7.27632 4.40625 7.49497 4.6249 7.49497 4.89462C7.49497 5.16434 7.27632 5.38299 7.0066 5.38299H7.00009C6.73037 5.38299 6.51172 5.16434 6.51172 4.89462Z" fill="#B3B9C1"/>
</svg>
